<svg width="900" height="1100" viewBox="0 0 900 1100" fill="none" xmlns="http://www.w3.org/2000/svg">
  <rect width="900" height="1100" rx="42" fill="#030711"/>
  <rect x="20" y="20" width="860" height="1060" rx="34" fill="url(#bg)"/>
  <path d="M145 917C210 786 309 712 450 712C591 712 690 786 756 917" stroke="#7DD3FC" stroke-width="18" stroke-linecap="round"/>
  <circle cx="452" cy="415" r="223" fill="#111827" stroke="#F8FAFC" stroke-opacity="0.2" stroke-width="8"/>
  <circle cx="453" cy="398" r="180" fill="#F1C27D"/>
  <path d="M276 374C276 271 354 197 452 197C550 197 628 271 628 374V393C628 480 565 549 479 560C455 563 446 566 446 566C446 566 438 563 414 560C328 549 276 480 276 393V374Z" fill="#0F172A"/>
  <path d="M329 364C329 282 385 225 452 225C519 225 575 282 575 364V393C575 456 531 509 468 520C457 522 448 523 448 523C448 523 439 522 428 520C365 509 329 456 329 393V364Z" fill="#111827"/>
  <path d="M339 348C339 261 401 195 480 195C558 195 620 260 620 347V357C620 446 556 514 479 535C470 533 462 529 455 524C405 489 339 427 339 357V348Z" fill="#0F172A"/>
  <path d="M359 355C359 289 405 239 461 239C517 239 563 289 563 355V380C563 437 520 485 464 497C459 498 455 500 452 500C448 500 444 498 439 497C383 485 359 437 359 380V355Z" fill="#F3C28D"/>
  <path d="M376 394C376 331 417 280 470 280C523 280 564 331 564 394V429C564 470 533 507 494 518C491 519 484 520 478 520C472 520 465 519 462 518C423 507 376 470 376 429V394Z" fill="#111827"/>
  <path d="M406 389C406 345 438 311 480 311C522 311 554 345 554 389V405C554 442 528 470 491 478C489 478 483 479 480 479C477 479 471 478 469 478C432 470 406 442 406 405V389Z" fill="#F1C27D"/>
  <path d="M409 388C409 372 419 360 433 360H529C543 360 553 372 553 388V398C553 420 535 438 513 438H449C427 438 409 420 409 398V388Z" fill="#0F172A"/>
  <path d="M345 329C355 251 424 193 503 199C569 205 618 246 639 309C650 208 589 113 500 113C416 113 340 187 335 282" fill="#0F172A"/>
  <path d="M407 376C410 334 440 304 480 304C521 304 551 334 554 376C550 351 528 332 501 332C474 332 452 351 446 376" fill="#FDF2D7" fill-opacity="0.7"/>
  <path d="M325 930C350 860 410 825 454 825C498 825 558 860 583 930" stroke="#E2E8F0" stroke-opacity="0.75" stroke-width="10" stroke-linecap="round"/>
  <circle cx="668" cy="208" r="82" fill="#38BDF8" fill-opacity="0.18"/>
  <circle cx="235" cy="260" r="38" fill="#8B5CF6" fill-opacity="0.25"/>
  <circle cx="708" cy="904" r="132" fill="#22D3EE" fill-opacity="0.12"/>
  <defs>
    <linearGradient id="bg" x1="147" y1="136" x2="777" y2="1021" gradientUnits="userSpaceOnUse">
      <stop stop-color="#111827"/>
      <stop offset="1" stop-color="#020617"/>
    </linearGradient>
  </defs>
</svg>
